<svg xmlns="http://www.w3.org/2000/svg" viewBox="0 0 64 64" fill="none">
  <defs>
    <!-- Gradient for the cloud -->
    <linearGradient id="cloudGradient" x1="0%" y1="0%" x2="100%" y2="100%">
      <stop offset="0%" style="stop-color:#3B82F6;stop-opacity:1" />
      <stop offset="100%" style="stop-color:#8B5CF6;stop-opacity:1" />
    </linearGradient>

    <!-- Gradient for the file -->
    <linearGradient id="fileGradient" x1="0%" y1="0%" x2="0%" y2="100%">
      <stop offset="0%" style="stop-color:#60A5FA;stop-opacity:1" />
      <stop offset="100%" style="stop-color:#3B82F6;stop-opacity:1" />
    </linearGradient>

    <!-- Gradient for the bridge/connection -->
    <linearGradient id="bridgeGradient" x1="0%" y1="0%" x2="100%" y2="0%">
      <stop offset="0%" style="stop-color:#34D399;stop-opacity:1" />
      <stop offset="100%" style="stop-color:#10B981;stop-opacity:1" />
    </linearGradient>
  </defs>

  <!-- Background circle with subtle gradient -->
  <circle cx="32" cy="32" r="30" fill="#F8FAFC" stroke="#E2E8F0" stroke-width="2"/>

  <!-- Cloud Storage Icon -->
  <g transform="translate(16, 12)">
    <!-- Cloud shape -->
    <path d="M6 14
             C2 14 0 12 0 9
             C0 6 2 4 5 4
             C5.5 1.5 8 0 11 0
             C14.5 0 17.5 2 18.5 5
             C21 5 23 7 23 9.5
             C23 12 21 14 18 14
             Z"
          fill="url(#cloudGradient)"
          opacity="0.9"/>

    <!-- S3/Storage lines -->
    <path d="M4 9 C4 9 8 11 11.5 11 C15 11 19 9 19 9"
          stroke="white"
          stroke-width="1.5"
          stroke-linecap="round"
          opacity="0.6"/>
    <path d="M4 11 C4 11 8 13 11.5 13 C15 13 19 11 19 11"
          stroke="white"
          stroke-width="1.5"
          stroke-linecap="round"
          opacity="0.6"/>
  </g>

  <!-- Binary File Icon -->
  <g transform="translate(22, 26)">
    <!-- File background -->
    <rect x="0" y="0" width="20" height="26" rx="2" fill="url(#fileGradient)"/>

    <!-- File corner fold -->
    <path d="M14 0 L20 6 L14 6 Z" fill="#2563EB" opacity="0.5"/>

    <!-- Binary code representation -->
    <g fill="white" opacity="0.9">
      <rect x="4" y="10" width="2" height="2" rx="0.5"/>
      <rect x="8" y="10" width="2" height="2" rx="0.5"/>
      <rect x="4" y="14" width="2" height="2" rx="0.5"/>
      <rect x="8" y="14" width="2" height="2" rx="0.5"/>
      <rect x="10" y="10" width="2" height="2" rx="0.5"/>
      <rect x="14" y="10" width="2" height="2" rx="0.5"/>
      <rect x="10" y="14" width="2" height="2" rx="0.5"/>
      <rect x="14" y="14" width="2" height="2" rx="0.5"/>

      <!-- Bottom row -->
      <rect x="4" y="18" width="12" height="2" rx="1"/>
    </g>
  </g>

  <!-- Connection/Bridge arrows -->
  <g transform="translate(6, 38)">
    <!-- Arrow pointing up (upload) -->
    <path d="M8 12 L8 4 M4 8 L8 4 L12 8"
          stroke="url(#bridgeGradient)"
          stroke-width="2.5"
          stroke-linecap="round"
          stroke-linejoin="round"
          fill="none"/>

    <!-- Arrow pointing down (download) -->
    <path d="M20 4 L20 12 M16 8 L20 12 L24 8"
          stroke="url(#bridgeGradient)"
          stroke-width="2.5"
          stroke-linecap="round"
          stroke-linejoin="round"
          fill="none"/>

    <!-- Connection dots -->
    <circle cx="14" cy="8" r="2" fill="#10B981" opacity="0.6"/>
  </g>
</svg>
